#!OML:ASF F:\VICON\USERDATA\INSTALL\rory3\rory3.ASF
:FULLY-SPECIFIED
:DEGREES
64
root 0.315884 18.9068 -13.0219 2.39794 -7.04738 0.368696
lowerback 1.57408 0.623735 -1.41207
upperback -0.504063 0.784916 -1.20993
thorax -1.40058 0.398841 -0.469591
lowerneck -9.57334 -4.50659 -9.67818
upperneck 15.5216 -6.21993 9.52179
head 6.90469 -2.81823 4.12214
rclavicle 8.4732e-015 -3.18055e-015
rhumerus -32.5716 -2.03035 -83.1629
rradius 26.8262
rwrist 19.8038
rhand -24.0654 0.705328
rfingers 7.12502
rthumb 2.41424 -29.2608
lclavicle 8.4732e-015 -3.18055e-015
lhumerus -33.6525 23.8353 73.4887
lradius 20.2865
lwrist -8.59948
lhand -18.1659 26.7767
lfingers 7.12502
lthumb 8.11021 56.6011
rfemur -4.16667 21.1534 19.06
rtibia 16.3142
rfoot -13.0623 -18.4399
rtoes -4.02932
lfemur 0.0283279 -7.92342 -20.1453
ltibia 12.2575
lfoot -14.3809 19.6589
ltoes -3.78514
65
root 0.316687 18.9029 -13.0226 2.3958 -7.06348 0.436321
lowerback 1.62878 0.616115 -1.47838
upperback -0.494137 0.771998 -1.22356
thorax -1.42178 0.392946 -0.446655
lowerneck -9.64619 -4.42509 -9.61811
upperneck 15.6185 -6.10819 9.46808
head 6.93336 -2.76284 4.10556
rclavicle 3.19298e-015 -1.07344e-014
rhumerus -32.5619 -1.91911 -83.1999
rradius 26.8374
rwrist 19.6854
rhand -24.0911 0.533855
rfingers 7.12502
rthumb 2.38942 -29.4325
lclavicle 3.19298e-015 -1.07344e-014
lhumerus -33.63 23.7877 73.5123
lradius 20.2824
lwrist -8.49936
lhand -18.1454 26.8553
lfingers 7.12502
lthumb 8.12997 56.6789
rfemur -4.11324 21.0972 18.9848
rtibia 16.2927
rfoot -13.134 -18.3586
rtoes -3.94259
lfemur -0.0132731 -7.93297 -20.2235
ltibia 12.3058
lfoot -14.3344 19.6932
ltoes -3.9739
66
root 0.317407 18.9065 -13.0231 2.39654 -7.07248 0.434473
lowerback 1.69679 0.607327 -1.47911
upperback -0.479645 0.758944 -1.21961
thorax -1.44511 0.386501 -0.442535
lowerneck -9.74193 -4.35229 -9.54477
upperneck 15.6693 -6.00742 9.42502
head 6.95249 -2.7107 4.0884
rclavicle -2.52084e-014 5.56597e-015
rhumerus -32.5028 -1.76119 -83.2851
rradius 26.636
rwrist 18.9546
rhand -25.6653 2.80912
rfingers 7.12502
rthumb 0.869022 -27.1689
lclavicle -2.52084e-014 5.56597e-015
lhumerus -33.6236 23.9054 73.4603
lradius 20.2208
lwrist -8.58168
lhand -18.2329 26.4928
lfingers 7.12502
lthumb 8.04555 56.3197
rfemur -4.18593 21.1628 18.9715
rtibia 16.3059
rfoot -13.0368 -18.4193
rtoes -3.90178
lfemur -0.0138778 -8.02159 -20.2318
ltibia 12.2896
lfoot -14.3403 19.7869
ltoes -4.03313
67
root 0.318982 18.9021 -13.0237 2.42425 -7.02529 0.430715
lowerback 1.71659 0.592265 -1.44507
upperback -0.443488 0.739659 -1.23236
thorax -1.41848 0.376321 -0.474029
lowerneck -9.82574 -4.27395 -9.46789
upperneck 15.6318 -5.89522 9.38632
head 6.94025 -2.65311 4.07251
rclavicle -2.10339e-014 2.22639e-014
rhumerus -32.4176 -1.72511 -83.312
rradius 26.5789
rwrist 18.8424
rhand -25.5516 2.76318
rfingers 7.12502
rthumb 0.978834 -27.2143
lclavicle -2.10339e-014 2.22639e-014
lhumerus -33.5611 23.9812 73.4483
lradius 20.1882
lwrist -8.69972
lhand -18.2843 26.4063
lfingers 7.12502
lthumb 7.99594 56.235
rfemur -4.14946 20.9935 18.9734
rtibia 16.3354
rfoot -13.1076 -18.2942
rtoes -3.73599
lfemur -0.0452278 -8.09381 -20.2224
ltibia 12.2676
lfoot -14.3496 19.7957
ltoes -3.89673
68
root 0.320874 18.9013 -13.0229 2.42601 -7.01247 0.459895
lowerback 1.77155 0.583547 -1.46253
upperback -0.416869 0.726728 -1.2381
thorax -1.42215 0.369927 -0.470191
lowerneck -9.88663 -4.19685 -9.38333
upperneck 15.6121 -5.78378 9.31593
head 6.92877 -2.59853 4.04526
rclavicle -5.41688e-015 -3.97569e-015
rhumerus -32.3814 -1.74164 -83.2736
rradius 26.6328
rwrist 19.1575
rhand -24.3168 1.06938
rfingers 7.12502
rthumb 2.17144 -28.8993
lclavicle -5.41688e-015 -3.97569e-015
lhumerus -33.5125 23.9939 73.4737
lradius 20.1925
lwrist -8.65366
lhand -18.2462 26.5367
lfingers 7.12502
lthumb 8.03272 56.364
rfemur -4.17073 20.9181 18.9295
rtibia 16.3823
rfoot -13.1162 -18.2361
rtoes -3.84142
lfemur -0.0308589 -8.09666 -20.2597
ltibia 12.2211
lfoot -14.3371 19.7811
ltoes -3.95552
69
root 0.32195 18.906 -13.0227 2.44307 -7.02503 0.529852
lowerback 1.86181 0.579531 -1.55078
upperback -0.448306 0.716519 -1.23247
thorax -1.50618 0.366038 -0.415997
lowerneck -9.91203 -4.13211 -9.38059
upperneck 15.6347 -5.68817 9.28221
head 6.92976 -2.5543 4.04317
rclavicle -5.06901e-015 1.59028e-014
rhumerus -32.4161 -1.64971 -83.2778
rradius 26.5829
rwrist 18.873
rhand -24.2514 1.14457
rfingers 7.12502
rthumb 2.23459 -28.8235
lclavicle -5.06901e-015 1.59028e-014
lhumerus -33.5713 23.9347 73.5017
lradius 20.2355
lwrist -8.51857
lhand -18.1838 26.5104
lfingers 7.12502
lthumb 8.09295 56.3354
rfemur -4.24774 20.985 18.8224
rtibia 16.3683
rfoot -13.0417 -18.2669
rtoes -3.80106
lfemur -0.114615 -8.01983 -20.3342
ltibia 12.3148
lfoot -14.3416 19.7472
ltoes -4.25385
70
root 0.321467 18.9067 -13.0231 2.47237 -6.99531 0.53271
lowerback 1.94714 0.578694 -1.59329
upperback -0.516508 0.711345 -1.20165
thorax -1.6249 0.364731 -0.361979
lowerneck -9.7819 -4.06621 -9.38225
upperneck 15.5921 -5.60043 9.25718
head 6.88349 -2.51772 4.0452
rclavicle 1.31819e-014 3.18055e-015
rhumerus -32.5414 -1.61646 -83.2456
rradius 26.5571
rwrist 18.6072
rhand -24.4584 1.33918
rfingers 7.12502
rthumb 2.03463 -28.6309
lclavicle 1.31819e-014 3.18055e-015
lhumerus -33.7013 23.8834 73.5109
lradius 20.2606
lwrist -8.53615
lhand -18.1316 26.6119
lfingers 7.12502
lthumb 8.14334 56.4349
rfemur -4.28192 20.985 18.812
rtibia 16.3591
rfoot -13.036 -18.2779
rtoes -3.77946
lfemur -0.198944 -8.03665 -20.3204
ltibia 12.3906
lfoot -14.4033 19.7093
ltoes -4.27548
71
root 0.322064 18.9023 -13.023 2.49391 -6.98695 0.465745
lowerback 2.01056 0.581191 -1.57102
upperback -0.560641 0.713974 -1.13346
thorax -1.70634 0.366698 -0.305749
lowerneck -9.55598 -3.98476 -9.44495
upperneck 15.4755 -5.48988 9.26414
head 6.79699 -2.47383 4.07056
rclavicle 5.59082e-015 1.59028e-014
rhumerus -32.6752 -1.58579 -83.1568
rradius 26.659
rwrist 18.7168
rhand -24.1738 0.739902
rfingers 7.12502
rthumb 2.30951 -29.2273
lclavicle 5.59082e-015 1.59028e-014
lhumerus -33.8303 23.8947 73.5326
lradius 20.2978
lwrist -8.58789
lhand -17.9355 26.841
lfingers 7.12502
lthumb 8.33259 56.6567
rfemur -4.25234 20.883 18.8846
rtibia 16.3709
rfoot -13.1196 -18.1948
rtoes -3.90949
lfemur -0.238172 -8.07623 -20.2488
ltibia 12.4348
lfoot -14.434 19.7321
ltoes -4.18848
72
root 0.323201 18.8992 -13.0213 2.48044 -7.00593 0.430712
lowerback 2.07779 0.599257 -1.54786
upperback -0.541984 0.737825 -1.10762
thorax -1.72513 0.378534 -0.293722
lowerneck -9.35555 -3.92581 -9.56462
upperneck 15.3465 -5.42119 9.4017
head 6.72029 -2.44255 4.14391
rclavicle -1.00386e-014 -4.77083e-015
rhumerus -32.7267 -1.60836 -83.0879
rradius 26.8066
rwrist 19.1311
rhand -23.7755 0.0264418
rfingers 7.12502
rthumb 2.69414 -29.9363
lclavicle -1.00386e-014 -4.77083e-015
lhumerus -33.8335 23.8085 73.5896
lradius 20.3333
lwrist -8.50755
lhand -17.7723 26.7799
lfingers 7.12502
lthumb 8.49012 56.5892
rfemur -4.19549 20.8374 18.924
rtibia 16.3581
rfoot -13.2009 -18.113
rtoes -3.89389
lfemur -0.255565 -8.05738 -20.2197
ltibia 12.5243
lfoot -14.4728 19.7413
ltoes -4.17946
73
root 0.324001 18.9011 -13.0216 2.48334 -6.98081 0.463453
lowerback 2.14125 0.601726 -1.59533
upperback -0.464258 0.739487 -1.11755
thorax -1.68152 0.379329 -0.277499
lowerneck -9.33222 -3.88907 -9.60192
upperneck 15.1869 -5.37447 9.51228
head 6.66442 -2.41463 4.18972
rclavicle -1.8313e-014 1.43125e-014
rhumerus -32.6326 -1.62425 -83.0755
rradius 26.8804
rwrist 19.2454
rhand -23.7219 -0.154817
rfingers 7.12502
rthumb 2.74598 -30.1169
lclavicle -1.8313e-014 1.43125e-014
lhumerus -33.6336 23.776 73.677
lradius 20.2849
lwrist -8.42757
lhand -17.6342 26.8104
lfingers 7.12502
lthumb 8.62336 56.6143
rfemur -4.21331 20.8985 18.8819
rtibia 16.3445
rfoot -13.1608 -18.1627
rtoes -3.74345
lfemur -0.31111 -8.02969 -20.2545
ltibia 12.613
lfoot -14.4591 19.6924
ltoes -4.23459
